<mxfile host="65bd71144e">
    <diagram id="vKH0hp30Jb2bUqArLuHH" name="Page-1">
        <mxGraphModel dx="471" dy="258" grid="1" gridSize="10" guides="1" tooltips="1" connect="1" arrows="1" fold="1" page="1" pageScale="1" pageWidth="850" pageHeight="1100" math="0" shadow="0">
            <root>
                <mxCell id="0"/>
                <mxCell id="1" parent="0"/>
                <mxCell id="19" value="" style="rounded=0;whiteSpace=wrap;html=1;strokeColor=#000000;fontColor=#000000;" parent="1" vertex="1">
                    <mxGeometry x="70" y="70" width="620" height="620" as="geometry"/>
                </mxCell>
                <mxCell id="17" value="" style="rounded=0;whiteSpace=wrap;html=1;fontFamily=Times New Roman;fontSize=20;gradientColor=none;dashed=1;strokeColor=#000000;fontColor=#000000;" parent="1" vertex="1">
                    <mxGeometry x="90" y="180" width="450" height="130" as="geometry"/>
                </mxCell>
                <mxCell id="6" value="" style="rounded=0;whiteSpace=wrap;html=1;fontFamily=Times New Roman;fontSize=20;gradientColor=none;dashed=1;strokeColor=#000000;fontColor=#000000;" parent="1" vertex="1">
                    <mxGeometry x="90" y="550" width="580" height="90" as="geometry"/>
                </mxCell>
                <mxCell id="2" value="&lt;span style=&quot;font-family: &amp;quot;times new roman&amp;quot; ; font-size: 20px&quot;&gt;&amp;nbsp; &amp;nbsp; &amp;nbsp; &amp;nbsp;Cli&lt;/span&gt;&lt;br style=&quot;font-family: &amp;quot;times new roman&amp;quot; ; font-size: 20px&quot;&gt;&lt;div&gt;&lt;span style=&quot;font-family: &amp;quot;times new roman&amp;quot; ; font-size: 20px&quot;&gt;&amp;nbsp; Interface&lt;/span&gt;&lt;/div&gt;" style="rounded=0;whiteSpace=wrap;html=1;gradientColor=none;dashed=1;align=left;strokeColor=#000000;fontColor=#000000;" parent="1" vertex="1">
                    <mxGeometry x="260" y="85" width="280" height="85" as="geometry"/>
                </mxCell>
                <mxCell id="8" value="Changedb.core" style="rounded=1;whiteSpace=wrap;html=1;fontFamily=Times New Roman;fontSize=20;gradientColor=none;strokeColor=#000000;fontColor=#000000;" parent="1" vertex="1">
                    <mxGeometry x="260" y="190" width="140" height="50" as="geometry"/>
                </mxCell>
                <mxCell id="9" value="&lt;font style=&quot;font-size: 15px&quot;&gt;PostgresDB converter&lt;/font&gt;" style="rounded=1;whiteSpace=wrap;html=1;fontFamily=Times New Roman;fontSize=20;gradientColor=none;strokeColor=#000000;fontColor=#000000;" parent="1" vertex="1">
                    <mxGeometry x="100" y="560" width="100" height="60" as="geometry"/>
                </mxCell>
                <mxCell id="11" value="&lt;font style=&quot;font-size: 13px&quot;&gt;Postgres&lt;/font&gt;" style="shape=cylinder3;whiteSpace=wrap;html=1;boundedLbl=1;backgroundOutline=1;size=12.999969482421875;fontFamily=Times New Roman;fontSize=20;gradientColor=none;strokeColor=#000000;fontColor=#000000;" parent="1" vertex="1">
                    <mxGeometry x="125" y="660" width="50" height="70" as="geometry"/>
                </mxCell>
                <mxCell id="13" value="" style="shape=flexArrow;endArrow=classic;startArrow=classic;html=1;fontFamily=Times New Roman;fontSize=13;endWidth=9.6;endSize=3.042222222222222;width=5.444444444444445;startWidth=9.6;startSize=3.042222222222222;entryX=0.5;entryY=1;entryDx=0;entryDy=0;exitX=0.5;exitY=0;exitDx=0;exitDy=0;exitPerimeter=0;strokeColor=#000000;fontColor=#000000;" parent="1" source="11" target="9" edge="1">
                    <mxGeometry width="100" height="100" relative="1" as="geometry">
                        <mxPoint x="190.1" y="545" as="sourcePoint"/>
                        <mxPoint x="190" y="515" as="targetPoint"/>
                    </mxGeometry>
                </mxCell>
                <mxCell id="15" value="Changedb.DependencyInjection" style="rounded=1;whiteSpace=wrap;html=1;fontFamily=Times New Roman;fontSize=20;gradientColor=none;strokeColor=#000000;fontColor=#000000;" parent="1" vertex="1">
                    <mxGeometry x="180" y="250" width="300" height="50" as="geometry"/>
                </mxCell>
                <mxCell id="16" value="&lt;span style=&quot;font-family: &amp;quot;times new roman&amp;quot; ; font-size: 20px&quot;&gt;Changedb.&lt;br&gt;ConsoleApp&lt;br&gt;&lt;/span&gt;" style="rounded=1;whiteSpace=wrap;html=1;strokeColor=#000000;fontColor=#000000;" parent="1" vertex="1">
                    <mxGeometry x="365" y="97.5" width="120" height="60" as="geometry"/>
                </mxCell>
                <mxCell id="28" value="&lt;font style=&quot;font-size: 15px&quot;&gt;SQL server&lt;br&gt;converter&lt;/font&gt;" style="rounded=1;whiteSpace=wrap;html=1;fontFamily=Times New Roman;fontSize=20;gradientColor=none;strokeColor=#000000;fontColor=#000000;" parent="1" vertex="1">
                    <mxGeometry x="210" y="560" width="97.5" height="60" as="geometry"/>
                </mxCell>
                <mxCell id="29" value="&lt;span style=&quot;font-size: 15px&quot;&gt;In plan Database&lt;br&gt;converter&lt;/span&gt;" style="rounded=1;whiteSpace=wrap;html=1;fontFamily=Times New Roman;fontSize=20;gradientColor=none;strokeColor=#000000;fontColor=#000000;" parent="1" vertex="1">
                    <mxGeometry x="540" y="560" width="120" height="60" as="geometry"/>
                </mxCell>
                <mxCell id="30" value="&lt;font style=&quot;font-size: 13px&quot;&gt;SQL&lt;br&gt;CE&lt;br&gt;&lt;/font&gt;" style="shape=cylinder3;whiteSpace=wrap;html=1;boundedLbl=1;backgroundOutline=1;size=12.999969482421875;fontFamily=Times New Roman;fontSize=20;gradientColor=none;strokeColor=#000000;fontColor=#000000;" parent="1" vertex="1">
                    <mxGeometry x="345" y="660" width="50" height="70" as="geometry"/>
                </mxCell>
                <mxCell id="31" value="&lt;font style=&quot;font-size: 13px&quot;&gt;etc&amp;nbsp;&lt;br&gt;DB&lt;br&gt;&lt;/font&gt;" style="shape=cylinder3;whiteSpace=wrap;html=1;boundedLbl=1;backgroundOutline=1;size=12.999969482421875;fontFamily=Times New Roman;fontSize=20;gradientColor=none;strokeColor=#000000;fontColor=#000000;" parent="1" vertex="1">
                    <mxGeometry x="575" y="660" width="50" height="70" as="geometry"/>
                </mxCell>
                <mxCell id="32" value="" style="shape=flexArrow;endArrow=classic;startArrow=classic;html=1;fontFamily=Times New Roman;fontSize=13;endWidth=9.6;endSize=3.042222222222222;width=5.444444444444445;startWidth=9.6;startSize=3.042222222222222;entryX=0.5;entryY=1;entryDx=0;entryDy=0;exitX=0.5;exitY=0;exitDx=0;exitDy=0;exitPerimeter=0;strokeColor=#000000;fontColor=#000000;" parent="1" source="50" target="28" edge="1">
                    <mxGeometry width="100" height="100" relative="1" as="geometry">
                        <mxPoint x="328" y="610" as="sourcePoint"/>
                        <mxPoint x="670" y="405" as="targetPoint"/>
                    </mxGeometry>
                </mxCell>
                <mxCell id="33" value="" style="shape=flexArrow;endArrow=classic;startArrow=classic;html=1;fontFamily=Times New Roman;fontSize=13;endWidth=9.6;endSize=3.042222222222222;width=5.444444444444445;startWidth=9.6;startSize=3.042222222222222;entryX=0.5;entryY=1;entryDx=0;entryDy=0;strokeColor=#000000;fontColor=#000000;" parent="1" source="31" target="29" edge="1">
                    <mxGeometry width="100" height="100" relative="1" as="geometry">
                        <mxPoint x="954.9000000000001" y="435" as="sourcePoint"/>
                        <mxPoint x="955" y="430" as="targetPoint"/>
                    </mxGeometry>
                </mxCell>
                <mxCell id="36" value="&lt;font face=&quot;Times New Roman&quot; style=&quot;font-size: 23px&quot;&gt;ChangeDB&lt;/font&gt;" style="text;html=1;strokeColor=none;fillColor=none;align=center;verticalAlign=middle;whiteSpace=wrap;rounded=0;fontColor=#000000;" parent="1" vertex="1">
                    <mxGeometry x="95" y="100" width="105" height="55" as="geometry"/>
                </mxCell>
                <mxCell id="45" value="&lt;font style=&quot;font-size: 13px&quot;&gt;Mysql&lt;/font&gt;" style="shape=cylinder3;whiteSpace=wrap;html=1;boundedLbl=1;backgroundOutline=1;size=12.999969482421875;fontFamily=Times New Roman;fontSize=20;gradientColor=none;strokeColor=#000000;fontColor=#000000;" parent="1" vertex="1">
                    <mxGeometry x="457.5" y="660" width="50" height="70" as="geometry"/>
                </mxCell>
                <mxCell id="46" value="&lt;font style=&quot;font-size: 15px&quot;&gt;Mysql&lt;br&gt;&amp;nbsp;converter&lt;/font&gt;" style="rounded=1;whiteSpace=wrap;html=1;fontFamily=Times New Roman;fontSize=20;gradientColor=none;strokeColor=#000000;fontColor=#000000;" parent="1" vertex="1">
                    <mxGeometry x="430" y="560" width="105" height="60" as="geometry"/>
                </mxCell>
                <mxCell id="47" value="" style="shape=flexArrow;endArrow=classic;startArrow=classic;html=1;fontFamily=Times New Roman;fontSize=13;endWidth=9.6;endSize=3.042222222222222;width=5.444444444444445;startWidth=9.6;startSize=3.042222222222222;entryX=0.5;entryY=1;entryDx=0;entryDy=0;exitX=0.5;exitY=0;exitDx=0;exitDy=0;exitPerimeter=0;strokeColor=#000000;fontColor=#000000;" parent="1" source="45" target="46" edge="1">
                    <mxGeometry width="100" height="100" relative="1" as="geometry">
                        <mxPoint x="815.1" y="435" as="sourcePoint"/>
                        <mxPoint x="815" y="405" as="targetPoint"/>
                    </mxGeometry>
                </mxCell>
                <mxCell id="48" value="&lt;font style=&quot;font-size: 15px&quot;&gt;SQL CE&lt;br&gt;converter&lt;/font&gt;" style="rounded=1;whiteSpace=wrap;html=1;fontFamily=Times New Roman;fontSize=20;gradientColor=none;strokeColor=#000000;fontColor=#000000;" parent="1" vertex="1">
                    <mxGeometry x="317.5" y="560" width="105" height="60" as="geometry"/>
                </mxCell>
                <mxCell id="49" value="" style="shape=flexArrow;endArrow=classic;startArrow=classic;html=1;fontFamily=Times New Roman;fontSize=13;endWidth=9.6;endSize=3.042222222222222;width=5.444444444444445;startWidth=9.6;startSize=3.042222222222222;entryX=0.5;entryY=1;entryDx=0;entryDy=0;exitX=0.5;exitY=0;exitDx=0;exitDy=0;exitPerimeter=0;strokeColor=#000000;fontColor=#000000;" parent="1" source="30" target="48" edge="1">
                    <mxGeometry width="100" height="100" relative="1" as="geometry">
                        <mxPoint x="367.5" y="600" as="sourcePoint"/>
                        <mxPoint x="710" y="405" as="targetPoint"/>
                    </mxGeometry>
                </mxCell>
                <mxCell id="50" value="&lt;font style=&quot;font-size: 13px&quot;&gt;SQL&lt;br&gt;server&lt;br&gt;&lt;/font&gt;" style="shape=cylinder3;whiteSpace=wrap;html=1;boundedLbl=1;backgroundOutline=1;size=12.999969482421875;fontFamily=Times New Roman;fontSize=20;gradientColor=none;strokeColor=#000000;fontColor=#000000;" parent="1" vertex="1">
                    <mxGeometry x="233.75" y="660" width="50" height="70" as="geometry"/>
                </mxCell>
                <mxCell id="67" value="" style="shape=image;verticalLabelPosition=bottom;labelBackgroundColor=#ffffff;verticalAlign=top;aspect=fixed;imageAspect=0;image=data:image/png,iVBORw0KGgoAAAANSUhEUgAAAMgAAADICAYAAACtWK6eAAAX/ElEQVR4nOzde1xUZf4H8O/3GRCEwQZQGDAv3NTMQEVFTbMysa0MS7R70j0BdxcrdS/aau1udtG2RKqt1GzVXC3FcgU1M/MKeMvMuJoiF0kGF1BUOM/vNRP8FpUZZphz5jkz832/Xv4hczjnw3C+fJ9zZuZ5PIA4nk8wQnDMAAwfHw8BkXGoi+oLAD0BQYscGAcwAEIZVBcc54bCfVCcvZWXZB0WHdsdoegAbmfQtAgWm/o+Mhxry7dxLu2SctNT4GAGFYoDUYE4SlC0P45dtIhpQx4FBE1Hd8MrDy2T9rw2E84cqZI3IGkLFYgjDJrWlw1JzUTEPrLsj/MTTbmLJ1I3UV6H/5IRK+gidCx+8V9Zn4RPELGbbPtF1LHucU9i95H+vPLwfmgwNMi2b3IF6iBKGZQ8RjMkdT0g6JQ9EK+QchZP4gczdit7HPdEHURu3aL1+JsPXtNE/GYhIGiVPyBqMTTuEQiPD4GqY4fgfGWt8sd0H9RB5NQ7PoqNe3s7InQXcXgOcEba8vvboCT7mIjjuyLqIHIIir4Oh8+azYamfowI8l1r2AgBfDHizkdBF+4FZw4fhMv1F0VlcRXUQezhG+yFw2c+heF3/hkRQ0THaY1zfooXb/4r3/v6MqivpELpICqQjgoZomP3LPsCkd0qOoolnEvfSF8+8RCU51SIzuKMaIhlK104w5v/nMqGz/wcEfuLjtMeROzN+k58GnQRl8BQmAcNBkl0JmdCHcQWveOjNOPeXgMIA0VH6RDODzVtTZsIJdk/i47iLKiDWAnjZj7CRs5ehwhhorN0GKKehY9/GDppS6F011HRcZwBdZD26CID2KT1y1HD7hEdRU5ckjZL6xIeB0MRvafLAuog5vgEe2J0UhIbu3AFalic6DhyQ8RI7P/Qg4BYC+dOHobL9Vx0JjWiDnI1n2CEfpPuYf0SX0GtPkZ0HEfgdRWHpeP/fgkOZGwRnUVtqEBa08d64Ki577GAqKdERxGBVxd8JH03/3moyGsUnUUtaIjVIu6lCeyWeRuYT+A40VFEwc6Bg1mf+x4ET98KOL2b3q5CHeRXbNKGP2Ng1Cuic6gJP5v/F2ndxHmic4jm3h1kwOO3sXv/tQp9uz4uOoraoE/grTh42ji4VJsPZ46cFJ1HFPcsEF24Jxv79gLW/4ElyLCn6DhqhYg9scfoR1E/1JdXHfnWHV+Fd78CGZQ8ho2cvQq79p0MCEx0HCegwS7dR2Gv2+/mnj4lUJ5bLDqQI7nVNQhOyvwHC4z8regczkyqLkjnaxNSRedwFPfoIIOmDWa3L/iE6Xo9JDqKs8POgcOw7/0jeF3FAahx/VfhXbuDhMWH4vBZrzG/kMdER3FFvLZ8hbR3wZ+gJPuU6CxKcd0Cuf3NBE3kXasBwFt0FBfXIBVueop//eJK0UGU4HpDrLD4PmzcogwWGjcPEDxFx3EDHhgQlYBh8TfxC9WHoaborOhAcnKpDoJ3LZ3KuselA4Kv6CzuiddIpfue55ue/Ex0Erm4RoF0i9azOxa9h34hCaKjEABeV75e2pI2DaqOOP3HfJ2/QAZNi2NDpq8TNdUOaZtpCqKcd6fAwYwdorPYw3kLJCw+GG9KepXpBz4tOgoxT6o4+CHfOfePzvrBLOcsELpD5WwamnIXT4ADS7aKDmIr57qLFRYfhncsfEfTffgrANBJdBxiNQ8WOuxhDIuP4heqj0JNUbXoQNZyjg4SFN0NR8+fgYF9UhDAT3QcYg9ez88W/FPaOfdvzrDGifoL5NepdrIBobfoKERGnJ9o2pp2q9qnIFLvEMtXr8XR89LYkOlLEUFV03oSGSDqTFMQ+UdIcObw93C5/pLoSG1RZwcJGdad3b10AzKMFR2FKI9LUp701ROToDxHdd1EXR1EF+GNN8+ZpYl78TNk2Et0HOIYiBjK+t6XDLoIDRgKdqvpg1nq6SBh8TexcW9nItC1hjvjACekLb+/Wy1rnIjvIL9OBv08GzJ9FQIEi45DxEIAnWmNE0/faqgrPwgNBqET2ontIHEvTWDRSW/KtvorcS2c50tHlv2J73tjragIYgrEP8KPTdqwBBl7VMjxiVPhkrRaWpswDWqKahx9bMcWiE+wBvslPoSxyXPcvWt4eSDccYMvdO7UsV9BkwSws+A8/FLXJHs2NeKcH+d56XP58XWfw/lKh/3QjisQfaw3G/XySgyIvM9hx1QpTw3Awbnh0E/vZdd+Ks41wo0vF8G5C6q56aM4Xl24Rvpu3lSoyHPI2vAOuUg3ra1xy/yN6BMwzBHHU7tx/X3hd2MD7d6P1ptBVW0T7C2+IEsuZ4CdA27Evvc/AZ6+56B010Glj6f4vFCmqXZikj6lz2v8j5+3fE97Fxn35SwQoDuLTvoQEzcsVvpYyj27cS9NYM/88CPNQ0WUwgKiUtgzR4/CgMfjFTuG7HvURfiwp48u1cQ8kYmI/WTfPyGtILIbNSNnZxnPOeO5J/f+5SsQn2CEwckT2OTM/chYkmz7JcQKxnOOTc7MxcHJk8EnWLZra1kKBAdNi2MTV+3QDEk1do0b5dgnIbZCxBvYkNQ1bOLK7Tho2kg59ml3geCkDQvY0Ol7UasfLUcgQuyF2pDRbOj0XWzS+pft3VfHC6R3fBR7aNt6Fhg1094QhCgBA/v8hT287QvjudrRfXSoQPD2hU9qxr19jOahImqH2pCJmvi383HsW8kd+X7bCqT3uOtZYuZnLOLOfwKCR0cOSIgILOI377LJmWsgKDrUpu+zekt9rDcbt2gjBkROoYVniBNi6B85mSWs/Mp4Llv9TVZtFRTdjU1YvgeRDbQnISGiGc9h47kM3aKDrNneqgJhY159k4qDuApTkYx5dYE127ZfIAMeH4b+kQ/LEYwQtcCAyEdxwGND2tuu3QJh0VPfBaALcuJyPDA66Z32NrJYIDg4eTxqQ+gt6jJrcp+Pb6gaakNG4ODkMZa2sVwgsclzZE9FYE/ReThdc1l0DGI6x1Net/S4+aFTWHw4IrtZiVDuruK/TdD3T0Xw1GgdBPpa9766xNgu0D/Uvk8gkmsh4jAIi+9lbgpUswWCWv1gRZO5uYZGDunbDVZvbywOKhBlYFDMUG6mQMwPsYIG0rtyiXvQhpg9180XCIJNL8kT4sTMTo5utkAQwF+xOISoCCIEmHuM3lNFiAUu+wJgjwAPGBDqDb5e6pmf2x7X+7f9q+of4gWJseIW3aq/yOFoWQOcqm4UlkFJLlcgoToPWDQlGCYO6gIaN+iPiUO6mP6JtuFQLUxfVQFlNa5VKC5VIDHXe8G6addD7660vqejJQz0Mz3/k98/DQdPOmTSQ4dwmb+x3bQa2DW7NxWHQMbnfufMXhB6nev83XWZAkkbFwDeni7z4zgt4+8g+TbXuQHqMmfU3dG0OrRaTIjRio4gG5cpkPCunqIjkGYR3VxnmOsyBdK5k8v8KE7PlYa6rvOTEKIAKhBCLKACIcQCKhBCLKACIcQCKhBCLKACIcQCKhBCLKACIcQCKhBCLKACIcQCKhBCLKACIcQCKhBCLKACIcQCKhBCLKACIcQCKhBCLKACIcQCKhBCLKACIcQCKhCFNDaBaR3CS41cdBSLGi5L8Euda82nKyfXmSNSRU78chnuXXwSjpVfgl6BnrBtRk9VTon64U4DpK6sgEYJYMoQP/g4KdSlpuyRAz0bMttbdB5G/L3EVBxGP5+9DCP+fsL0dbWQJIA3s86aZmNvbF6Sek1uLTz8YZmpo5D/caoOomEA7zyoh8dHXKfKieKMRXDXO6fgvw1XnmRVdU2mr2/6bQ8YHuEjLB80F8czK8pg+e5z1zyWeagWYl8tgfXJPSAq2L6O1/j+DVf8v7ZBgpX7zsGMNZVwUeXDztbUd5ZZcEuUDzw3xl+VxWEcVt23pPSa4mhh/Lrx8ZrzTQ7P1trCLWfbLI4WP1VcgvszTkGTzI3Ez5uZfndj+oj9A2Er9Z1pFgRqrVtT3NFahlXGTmGJ8fEFm886LFdrLcOqORvOtLvtj+WX4Nv8ekVydOnsVKeccxWII/1j21m47rc/QcQfC+GrI7Vmt2vpHO0VR4uzVm5njaraRrh/ySnwTTkON79WAkVVl8xua+wcsz8/A5etPHzdRboWASqQa11q5DBrXSW8+O8zUH9RMl1kGwtg6a6aa7a1tnO06OLN4JlbdLLkNBbHfemlkHm4zjSm31fSAHe/cxJOG668ZWtL52jR3d8DRkc511BIKVQgVzGeSG9lVwNvdR0pcYDnVpTD3uIL//81WzuH0QePhcDQ3p3tzmgsjuF/PwF7Sy5c8fXCM5dh8vunTK/BtLC1c3gwgM+e7Q46H3UOZx2NCqSZ8aT6w+eVsHBLdZuPG4tkyvulpiKxtXMYzb2nqyyLbdYaL/bTS02drS37SxrgljdOwKnqyzZ3jlCdBr55qRcMD6fu0cKpbvMqaeuPdfBGVtvF0aKsphFufeME+HoxOHfB+jG6sTjmTugmQ0qA1TnnrukcV9tfcgEGzi+2KaOxc6x57noqjqtQB2lm6QK3tUYJhBWHUckv1uW0JSN1DvOoQJrd3s8XvDxQtv0ZL8hXP9td1uIwumuAH6B8MaGvvhNsm0HFYQ4VSLMbQrwgK62nbEVivCBPjJV/gf9RUT4wY1yALPvqq/eEfX8Mg6hgL1n254qoQFoZFekD/3q6u11F0tI55LggN+eVhCB4IT7Ark5i7Bzrk3uA1otOAUvo2bnKxEF+dnUSpTpHa508EBZMCu5wJ6HOYT0qkDZ0tJPIdSvXWh3pJMYLcuoc1qNnyQxbO4ncd6usYWsnabmVS53DelQgFljbSUQUR2vWdBK6ldsxVCDtMHaSvDlhEBnkec1jSt3KtVVLJ/ngMX2bRUK3cjuOCsQK/fRepnH71Z3EERfktnjiZv9rhlt0QW4fequJlfqFeEHW73vC8j01wBAhMdYPxvXXio51DeNwKzKoE3xXcB66+XlA6m0BdEFuByoQG4yK8jH9UzPjcOuZ0f6mf8R+9KeFEAuoQAixgAqEEAucqkAM5+lz0s5Ozs/kO4JTFci3+fWQ8U216VN1xLlcuCTBx7tq4NsC9UygZw2nuot1uQlg+qpK07+rXT1RGRHL47kfRUeQhVN1EEIcjQqEEAuoQAixgAqEEAuoQAixgAqEEAuoQAixgAqEEAvMFggHsDwPJyEugnMwmHvMfAfhUK5UIEJUpszcA+YLpK78B6XSEKIqlYfMnuvmh1hnDucoFogQFeH1FQfMPWa+g5Rk/8w5369UKLlVO9nbqF1ZdX2j6AhW4wC7oCS72NzjFu9i8bz0mYqkUkDeSctrZhDHOVJ6UXQEq/Hcxa9YetxygRxYsoPXle+RPZUCVuwxv7Qxcaxlu69dz1GNeF35fn5gSZalbdpfiI7zI9Bj9BOo8tdMjpZdNPXLmyN9gak6qetqbAL426YqeHe72bumqsEBGnleeiKcOXza0nbtF8iZI2UYFh+OnQMHyhlQCTvyz8PZuka46yY/0VHc0gtrK+D1zU7y8pmh8FO+fXZ6e5tZNzNzUHQQm7g6CwFUXyRGvQI94f7BfjAg1Mu0niBRTv1FyXTNsf5QrdmFRdWGAxySNjwYD5VHqtrb1vqJ80OHeuM9y/cwJykSQtoiARziX04dAWU5DdZsb/1i2LVljXDqu40YFNMTvQNvALShuAgRjHOQwFC4lu+enwQnd1o9DuzQSY53LExm4Xe2O34jRA04h0Zesvk5vnXGx7Z+r/UdpLXirBxuKFyJQQN7YCdtvw7tgxAH4HUVmdLOOQmQt2RbR77f7mESJma+zAIi/2LvfgiRG68ufENae69dL3Z3rIO0dmzVDg58C3bp2Qc7aXvZvT9C7MTrKnZKR5c+wLe+sMzefcl3oe0brMG+k+7HISnzEJBmcSMOx5H/wHPS/8Dz130JdZVcjn3KfydKF+HDEtenI9Mkyb5vQszgTFomrU5IgZoiWec2Ve5W7U1T49mIWQsR4EbFjkEI58elo8tm8j1vbFRi94q/loGTMxcz/8gUpY9D3A+vLnhHWpvwOyWPYf9FenuOrdoEnr6lEBQTi4jqWfGSOC8Op6Xvl6fw7NTXlT6U414NDx3qzUbOWY4BkVMcdkzicnh14Xpp9ysPWftWEXsp30Fa1JY18p+//gIu1R2F0GHRCNDVYccmTo8Dz+e5S9L43gVzoDrfYe+KFPN+Kl2EDqdszGAADwo5PnEqHKVPpTUJyWAoqnX0sR3XQVprMDRAXvo68PQ9hkExMYAYKCQHUTfO86Wjy57g6x99DRoMl0REEP+OXF04w36JT7Poqa8D4HWi4xAV4FArlfxnNj+Q/h5UFwtdb098gbQIH99fc8fCrwCwt+goRCR+QtqSdi8vyf5edBIQNsRqi6GoihdnLYHOAU3gHzkS1ZSNKI9DvVS8eb60dcYjUJFrdqZDR1NPB2kFQ4b2xgnL1yJArOgsRHmcQx7/cupEXp5TKjrL1dT5V7qurIYfX7sStPqzoIsYhIi+oiMRBXColoo3z+P/eSYFqvN/ER2nLarsIFcIH9+bjV24HZGuTVwJ53BC2pYWD8VZBaKzWKLODtKaoaiGl+5aCcEDPbFzwE0A0El0JGIHDrX8XP4iKTvlSSjdfUp0nPaov4O0FhYfxWJT5kBA1EMI4CE6DrEeB2iE6oJV0oH0l6E4u0R0Hms5V4E0w9jkOzA2dSMCeIvOQtrHARp4yaYH+ZYXN4jOYiv1D7HaUp5TzIs3fwBd+/ujVj9YdBxinlR56EO+77UEyM3IE52lI5yyg1whNmWMJjZ5DQAGiY5CWuFwuulA+iTIS98nOoo9nL9AjIJj9GzsogzU6ieKjkKap9rZmvYcnDlcITqLvVyjQJrhPcseYKHD3gMAnegsbolDvVS+P4V/mbRcdBS5OOc1iDn563/g1YVfoH+kHjoH9FX7kg2uwjStZ03hWmnX/Adg31tfi84jJ5fqIK3h2IUPY8SdH9GdLmU58x0qa7hWB2mtJOt7bij8BLtFd0UvvxjRcVwRry9fIe2ccy/kZuSKzqIUl+0gVwgf358Nn7UQtfrxoqO4Al5XvpXnr53FczPMrg7rKtyjQJrRFET2c8RUO2riukOsthxbtQmA74YuPW/ETtoQ0XGcCa+r2M+/X/4I3zbjPdFZHMm9CgSaX4Uv/W4p+kd6gl/3YfTBLMs4hyYo379Q+vrFR6A4y+x64q7KPU+OBoPE89dvg0u130CPUX0RoKfoSGrEUdrL97yexL+b94HxOROdRwS3ugYxh9Y4uZZUUzCHr0l4VXQO0dyzg1zt2KodNAVRs5apdrKmfyg6ihpQB2lNH+vBRs19DwOinhIdRQReXfCRtHf+81Ca1yg6i1pQB2mtrlzix1ZnNt/pisZOWr3oSI7A6yoO8yPLnuX7Xn8Lfilwy2sNc6iDmOMbrMF+k57E2NQ5CNBDdBwlcA7F/MDiv/Lj61ZAfaXD5rt1JlQg7fGP6MYmb/wEAe4UHUVOEocv+doJU8FQZPWa4e6IhljtaTCc53np/wJP358gKOYWp5+CiEO19P3yZ3nmw3+ABsMF0XHUjjqILX6dgugLRBwoOkpHcA6HpG1pU9Q+1Y6aUAexhaGohpdkfQzeAQYMiIwDZ3krPYezpsmgv057Gspyz4qO40yog3RUyFA9u3vpKmTsVtFRLOEofcMzk+7j5bk1orM4I+ogHVVXVsd/WrcafINLISAqBgHUtXQD5+XSic2z+VfPvQDVBfWi4zgr6iBy8A3ugiNmpbHw8Wni1zjh56SirEX86LJ/QOUR6hp2ogKR069rnGwXNgURh9NN29Juo4tw+dAQS06Goip+yjSPsDd2DogGR02PyqGB1xS+L2WlPAqlu0465JhugjqIUgYnj9QMSV0HAMq+XYVDjZS3eCI/sGSHosdxU9RBlFKec4oXbf4IuvbvBFp9rNwfzOIcmnjVwbelTc/eDyXZP8m5b/I/1EEcITZlIBuc/IVsa5xwni8dWpzAczKOy7I/YhZ1EEcoz6ngpbtWon9kN9TqO/wqvOnjr+fLP5X+80wi5H+luuXKXBF1EEczdpPYlMUIcLMt38ZR2sYPpD/PczIKlQtHrkYFIgiGj4+BiPg7QBcVh7qIfoAYChz8AUECgDrg/CTWFP4k1RTug8LsbF516CjUVXLRud3N/wUAAP//ef/AD8Iu2GEAAAAASUVORK5CYII=;strokeColor=#000000;fontColor=#000000;" parent="1" vertex="1">
                    <mxGeometry x="585" y="180" width="70" height="70" as="geometry"/>
                </mxCell>
                <mxCell id="70" value="&lt;font style=&quot;font-size: 14px&quot;&gt;Dependabot&lt;/font&gt;" style="text;html=1;strokeColor=none;fillColor=none;align=center;verticalAlign=middle;whiteSpace=wrap;rounded=0;fontFamily=Times New Roman;fontSize=15;fontColor=#000000;" parent="1" vertex="1">
                    <mxGeometry x="590" y="250" width="60" height="30" as="geometry"/>
                </mxCell>
                <mxCell id="71" value="" style="endArrow=classic;html=1;fontFamily=Times New Roman;fontSize=14;entryX=1;entryY=0.5;entryDx=0;entryDy=0;exitX=0;exitY=0.5;exitDx=0;exitDy=0;strokeColor=#000000;fontColor=#000000;" parent="1" source="67" target="8" edge="1">
                    <mxGeometry width="50" height="50" relative="1" as="geometry">
                        <mxPoint x="450" y="230" as="sourcePoint"/>
                        <mxPoint x="500" y="180" as="targetPoint"/>
                    </mxGeometry>
                </mxCell>
                <mxCell id="90" value="" style="rounded=0;whiteSpace=wrap;html=1;fontFamily=Times New Roman;fontSize=20;gradientColor=none;dashed=1;strokeColor=#000000;fontColor=#000000;" parent="1" vertex="1">
                    <mxGeometry x="90" y="320" width="580" height="200" as="geometry"/>
                </mxCell>
                <mxCell id="79" value="Mapper Rules For SQL Server " style="swimlane;strokeColor=#000000;fontColor=#000000;" parent="1" vertex="1">
                    <mxGeometry x="255" y="325" width="270" height="130" as="geometry">
                        <mxRectangle x="220" y="870" width="110" height="23" as="alternateBounds"/>
                    </mxGeometry>
                </mxCell>
                <mxCell id="85" value="&lt;font style=&quot;font-size: 10px&quot;&gt;&amp;nbsp;&quot;BOOL&quot; =&amp;gt; DataTypeDescriptor.Boolean()&lt;/font&gt;" style="text;html=1;align=center;verticalAlign=middle;resizable=0;points=[];autosize=1;strokeColor=#000000;fillColor=none;fontColor=#000000;" parent="79" vertex="1">
                    <mxGeometry x="25" y="30" width="200" height="20" as="geometry"/>
                </mxCell>
                <mxCell id="72" value="Mapper Rules For MySQL  " style="swimlane;strokeColor=#000000;fontColor=#000000;" parent="1" vertex="1">
                    <mxGeometry x="230" y="355" width="270" height="130" as="geometry">
                        <mxRectangle x="220" y="870" width="110" height="23" as="alternateBounds"/>
                    </mxGeometry>
                </mxCell>
                <mxCell id="75" value="&lt;font style=&quot;font-size: 10px&quot;&gt;&amp;nbsp;&quot;BOOL&quot; =&amp;gt; DataTypeDescriptor.Boolean()&lt;/font&gt;" style="text;html=1;align=center;verticalAlign=middle;resizable=0;points=[];autosize=1;strokeColor=#000000;fillColor=none;fontColor=#000000;" parent="72" vertex="1">
                    <mxGeometry x="25" y="80" width="200" height="20" as="geometry"/>
                </mxCell>
                <mxCell id="78" value="&lt;font style=&quot;font-size: 10px&quot;&gt;&amp;nbsp;&quot;BOOL&quot; =&amp;gt; DataTypeDescriptor.Boolean()&lt;/font&gt;" style="text;html=1;align=center;verticalAlign=middle;resizable=0;points=[];autosize=1;strokeColor=#000000;fillColor=none;fontColor=#000000;" parent="72" vertex="1">
                    <mxGeometry x="25" y="30" width="200" height="20" as="geometry"/>
                </mxCell>
                <mxCell id="58" value="Mapper Rules For Postgres  " style="swimlane;strokeColor=#000000;fontColor=#000000;" parent="1" vertex="1">
                    <mxGeometry x="205" y="385" width="270" height="130" as="geometry">
                        <mxRectangle x="220" y="870" width="110" height="23" as="alternateBounds"/>
                    </mxGeometry>
                </mxCell>
                <mxCell id="59" value="" style="rounded=1;whiteSpace=wrap;html=1;dashed=1;strokeColor=#000000;fontColor=#000000;" parent="58" vertex="1">
                    <mxGeometry x="10" y="30" width="250" height="40" as="geometry"/>
                </mxCell>
                <mxCell id="60" value="" style="rounded=1;whiteSpace=wrap;html=1;dashed=1;strokeColor=#000000;fontColor=#000000;" parent="58" vertex="1">
                    <mxGeometry x="10" y="80" width="250" height="40" as="geometry"/>
                </mxCell>
                <mxCell id="61" value="&lt;font style=&quot;font-size: 11px&quot;&gt;&amp;nbsp;&quot;BOOL&quot; =&amp;gt; DataTypeDescriptor.Boolean()&lt;/font&gt;" style="text;html=1;align=center;verticalAlign=middle;resizable=0;points=[];autosize=1;strokeColor=none;fillColor=none;fontColor=#000000;" parent="58" vertex="1">
                    <mxGeometry x="15" y="80" width="220" height="20" as="geometry"/>
                </mxCell>
                <mxCell id="62" value="&lt;font style=&quot;font-size: 11px&quot;&gt;&quot;SMALLINT&quot; =&amp;gt; DataTypeDescriptor.SmallInt()&lt;/font&gt;" style="text;html=1;align=center;verticalAlign=middle;resizable=0;points=[];autosize=1;strokeColor=none;fillColor=none;fontColor=#000000;" parent="58" vertex="1">
                    <mxGeometry x="15" y="100" width="240" height="20" as="geometry"/>
                </mxCell>
                <mxCell id="63" value="&lt;font style=&quot;font-size: 11px&quot;&gt;&quot;SMALLINT&quot; =&amp;gt; DataTypeDescriptor.SmallInt()&lt;/font&gt;" style="text;html=1;align=center;verticalAlign=middle;resizable=0;points=[];autosize=1;strokeColor=none;fillColor=none;fontColor=#000000;" parent="58" vertex="1">
                    <mxGeometry x="15" y="50" width="240" height="20" as="geometry"/>
                </mxCell>
                <mxCell id="64" value="&lt;font style=&quot;font-size: 11px&quot;&gt;&amp;nbsp;&quot;BOOL&quot; =&amp;gt; DataTypeDescriptor.Boolean()&lt;/font&gt;" style="text;html=1;align=center;verticalAlign=middle;resizable=0;points=[];autosize=1;strokeColor=none;fillColor=none;fontColor=#000000;" parent="58" vertex="1">
                    <mxGeometry x="15" y="30" width="220" height="20" as="geometry"/>
                </mxCell>
                <mxCell id="96" value="" style="shape=flexArrow;endArrow=classic;html=1;fontFamily=Times New Roman;fontSize=10;fontColor=#000000;strokeColor=#000000;" parent="1" edge="1">
                    <mxGeometry width="50" height="50" relative="1" as="geometry">
                        <mxPoint x="369.8" y="550" as="sourcePoint"/>
                        <mxPoint x="370" y="520" as="targetPoint"/>
                        <Array as="points">
                            <mxPoint x="369.8" y="550"/>
                        </Array>
                    </mxGeometry>
                </mxCell>
            </root>
        </mxGraphModel>
    </diagram>
</mxfile>